# xmcd CD database file
#
# Track frame offsets:
#	183
#	15215
#	25810
#	37618
#	48058
#	59645
#	68975
#	81538
#	90730
#	100363
#	112093
#	123098
#	134163
#	151385
#	160785
#	171958
#	182040
#	194553
#	205578
#	216018
#	227650
#	238125
#	250638
#	258103
#
# Disc length: 3562 seconds
#
# Revision: 0
# Processed by: cddbd v1.5.2PL0 Copyright (c) Steve Scherf et al.
# Submitted via: CDex 2.02
#
DISCID=440de818
DTITLE=Divers - Country Sars
DYEAR=1900
DGENRE=Country
TTITLE0=For The Good Time
TTITLE1=All That's Keep Me Alive
TTITLE2=Don't Think Twice It's Allright
TTITLE3=You Win Again
TTITLE4=Makin' Believe
TTITLE5=I Can't Help It
TTITLE6=I ust Don't Understand
TTITLE7=I Love You honey
TTITLE8=Ever Since You Went Away
TTITLE9=Wasted Again
TTITLE10=Let The Sun Shine
TTITLE11=You Comb Her Head
TTITLE12=Something Burning
TTITLE13=Stick And Stone
TTITLE14=Sally Was A Good Old Girl
TTITLE15=Straight As In Love
TTITLE16=Little Blossom
TTITLE17=Life Is A Picture
TTITLE18=You Woudn't Cross The Street To Say Goodbye
TTITLE19=Let The Teardrops Fall
TTITLE20=Let Me Be The Judge
TTITLE21=You're One Memory I Like
TTITLE22=Mary Don't You Weep
TTITLE23=The World's Worst Loser
EXTD=
EXTT0=
EXTT1=
EXTT2=
EXTT3=
EXTT4=
EXTT5=
EXTT6=
EXTT7=
EXTT8=
EXTT9=
EXTT10=
EXTT11=
EXTT12=
EXTT13=
EXTT14=
EXTT15=
EXTT16=
EXTT17=
EXTT18=
EXTT19=
EXTT20=
EXTT21=
EXTT22=
EXTT23=
PLAYORDER=
